<svg width="20" height="20" viewBox="0 0 20 20" fill="none" xmlns="http://www.w3.org/2000/svg">
  <g clip-path="url(#clip0_1003_2744)">
  <path d="M13.9416 17.1583H6.05828C4.89162 17.1583 3.85828 16.375 3.54995 15.25L1.72495 7.90002C1.55828 7.27502 1.75828 6.61668 2.24162 6.18335C2.73328 5.75002 3.40828 5.62502 4.01662 5.87502L6.24162 6.76668L8.81662 4.23335C9.46662 3.58335 10.525 3.58335 11.175 4.23335L13.7 6.75835L15.9749 5.88335C16.5833 5.64168 17.2666 5.75835 17.7499 6.20002C18.2416 6.63335 18.4333 7.30002 18.2666 7.93335L16.4416 15.2583C16.1333 16.4 15.0999 17.1917 13.9333 17.1917L13.9416 17.1583ZM3.39995 7.40835C3.39995 7.40835 3.34162 7.47502 3.34162 7.48335L5.16662 14.825C5.27495 15.2084 5.64162 15.4917 6.05828 15.4917H13.9416C14.3583 15.4917 14.7249 15.2084 14.8416 14.8084L16.6666 7.48335L16.6083 7.40835L14.3833 8.30002C13.75 8.55835 13.0166 8.40835 12.5333 7.91668L10.0083 5.39168L7.48328 7.91668C6.99995 8.40002 6.27495 8.55002 5.63328 8.30002L3.40828 7.40835H3.39995Z" fill="currentColor"/>
  <path d="M9.99998 2.91659C10.5753 2.91659 11.0416 2.45022 11.0416 1.87492C11.0416 1.29962 10.5753 0.833252 9.99998 0.833252C9.42468 0.833252 8.95831 1.29962 8.95831 1.87492C8.95831 2.45022 9.42468 2.91659 9.99998 2.91659Z" fill="currentColor"/>
  <path d="M17.5 5.11654C18.0753 5.11654 18.5416 4.65017 18.5416 4.07487C18.5416 3.49957 18.0753 3.0332 17.5 3.0332C16.9247 3.0332 16.4583 3.49957 16.4583 4.07487C16.4583 4.65017 16.9247 5.11654 17.5 5.11654Z" fill="currentColor"/>
  <path d="M2.49998 5.11654C3.07528 5.11654 3.54165 4.65017 3.54165 4.07487C3.54165 3.49957 3.07528 3.0332 2.49998 3.0332C1.92468 3.0332 1.45831 3.49957 1.45831 4.07487C1.45831 4.65017 1.92468 5.11654 2.49998 5.11654Z" fill="currentColor"/>
  </g>
  <defs>
  <clipPath id="clip0_1003_2744">
  <rect width="20" height="20" fill="currentColor"/>
  </clipPath>
  </defs>
  </svg>
  