<svg width="20" height="20" viewBox="0 0 20 20" fill="none" xmlns="http://www.w3.org/2000/svg">
  <g clip-path="url(#clip0_1003_2737)">
  <path d="M18.4084 1.59178C17.375 0.558448 15.6584 0.591782 14.5917 1.66678L13.2 3.05845C13.075 3.05011 12.9417 3.01678 12.8167 3.01678H5.83335C3.53335 3.01678 1.66669 4.88345 1.66669 7.18345V14.1751C1.66669 16.4751 3.53335 18.3418 5.83335 18.3418H12.825C15.125 18.3418 16.9917 16.4751 16.9917 14.1751V7.18345C16.9917 7.05845 16.9667 6.93345 16.95 6.80011L18.3417 5.40845C19.4167 4.33345 19.45 2.62511 18.4167 1.59178H18.4084ZM15.325 14.1668C15.325 15.5418 14.2 16.6668 12.825 16.6668H5.83335C4.45835 16.6668 3.33335 15.5418 3.33335 14.1668V7.17511C3.33335 5.80011 4.45835 4.67511 5.83335 4.67511H11.575L7.85835 8.39178C7.74169 8.50845 7.65835 8.66678 7.62502 8.82511L7.04169 11.9751C6.99169 12.2418 7.07502 12.5251 7.27502 12.7168C7.34169 12.7834 7.43335 12.8418 7.51669 12.8751C7.53335 12.8834 7.55002 12.8918 7.56669 12.9001C7.65835 12.9334 7.75002 12.9501 7.84169 12.9584C7.84169 12.9584 7.85002 12.9584 7.85835 12.9584C7.90835 12.9584 7.95835 12.9584 8.00835 12.9418L11.1584 12.3584C11.325 12.3251 11.475 12.2501 11.6 12.1251L15.3167 8.40845V14.1501L15.325 14.1668ZM17.1584 4.22511L15.4917 5.89178L10.6084 10.7751L8.90002 11.0918L9.21669 9.38345L14.1 4.50011L15.7667 2.83345C16.1917 2.40845 16.8417 2.37511 17.225 2.75845C17.6084 3.14178 17.575 3.80011 17.15 4.21678L17.1584 4.22511Z" fill="currentColor"/>
  </g>
  <defs>
  <clipPath id="clip0_1003_2737">
  <rect width="20" height="20" fill="currentColor"/>
  </clipPath>
  </defs>
  </svg>
  